<svg width="72" height="72" viewBox="0 0 72 72" fill="none" xmlns="http://www.w3.org/2000/svg">
<path d="M36 0C16.1208 0 0 16.1208 0 36C0 55.8792 16.1208 72 36 72C55.8792 72 72 55.8792 72 36C72 16.1208 55.8864 0 36 0ZM17.7624 37.2096L17.9136 36.9648L27.2808 22.3128C27.4176 22.104 27.7416 22.1256 27.8424 22.356C29.4048 25.8624 30.7584 30.2256 30.1248 32.94C29.8584 34.056 29.1168 35.568 28.2816 36.9648C28.1736 37.1664 28.0584 37.368 27.9288 37.5624C27.8712 37.6488 27.7704 37.6992 27.6624 37.6992H18.036C17.7768 37.6992 17.6256 37.4184 17.7624 37.2096ZM59.5008 42.2496C59.5008 42.3864 59.4216 42.5016 59.3064 42.552C58.5792 42.8616 56.0952 44.0064 55.0656 45.4392C52.4304 49.104 50.4216 54.3456 45.9216 54.3456H27.1584C20.5056 54.3456 15.12 48.9384 15.12 42.264V42.048C15.12 41.8752 15.264 41.7312 15.444 41.7312H25.8984C26.1072 41.7312 26.2584 41.9184 26.244 42.1272C26.1648 42.804 26.2944 43.5024 26.6184 44.136C27.2376 45.396 28.5264 46.1808 29.916 46.1808H35.0928V42.1416H29.9736C29.7144 42.1416 29.556 41.8392 29.7072 41.6232C29.7648 41.5368 29.8224 41.4504 29.8944 41.3496C30.3768 40.6584 31.068 39.5928 31.7592 38.376C32.2272 37.5552 32.6808 36.6768 33.048 35.7984C33.12 35.64 33.1776 35.4744 33.2424 35.316C33.3432 35.0352 33.444 34.7688 33.516 34.5096C33.588 34.2864 33.6528 34.056 33.7104 33.84C33.8832 33.0912 33.9552 32.2992 33.9552 31.4784C33.9552 31.1544 33.9408 30.816 33.912 30.4992C33.8976 30.1464 33.8544 29.7936 33.8112 29.4408C33.7824 29.1312 33.7248 28.8216 33.6672 28.5048C33.588 28.0368 33.4872 27.5688 33.372 27.1008L33.3288 26.9208C33.2424 26.5968 33.1632 26.2944 33.0624 25.9704C32.7672 24.9624 32.436 23.976 32.076 23.0544C31.9464 22.6872 31.8024 22.3344 31.6512 21.9888C31.4352 21.456 31.212 20.9736 31.0104 20.52C30.9024 20.3112 30.816 20.124 30.7296 19.9296C30.6288 19.7136 30.528 19.4976 30.42 19.2888C30.348 19.1304 30.2616 18.9792 30.204 18.8352L29.5704 17.6688C29.484 17.5104 29.628 17.316 29.8008 17.3664L33.7608 18.4392H33.7752C33.7824 18.4392 33.7824 18.4392 33.7896 18.4392L34.308 18.5904L34.884 18.7488L35.0928 18.8064V16.4592C35.0928 15.3216 36 14.4 37.1304 14.4C37.692 14.4 38.2032 14.6304 38.5632 15.0048C38.9304 15.3792 39.1608 15.8904 39.1608 16.4592V19.9512L39.5856 20.0664C39.6144 20.0808 39.6504 20.0952 39.6792 20.1168C39.78 20.1888 39.9312 20.304 40.1184 20.448C40.2696 20.5632 40.428 20.7072 40.6152 20.8584C40.9968 21.168 41.4576 21.564 41.9544 22.0176C42.084 22.1328 42.2136 22.248 42.336 22.3704C42.9768 22.968 43.6968 23.6664 44.388 24.444C44.5824 24.6672 44.7696 24.8832 44.964 25.1208C45.1512 25.3584 45.36 25.5888 45.5328 25.8192C45.7704 26.1288 46.0152 26.4528 46.2384 26.7912C46.3392 26.9496 46.4616 27.1152 46.5552 27.2736C46.8432 27.6984 47.088 28.1376 47.3256 28.5768C47.4264 28.7784 47.5272 29.0016 47.6136 29.2176C47.88 29.808 48.0888 30.4056 48.2184 31.0104C48.2616 31.14 48.2904 31.2768 48.3048 31.4064V31.4352C48.348 31.608 48.3624 31.7952 48.3768 31.9896C48.4344 32.6016 48.4056 33.2208 48.276 33.84C48.2184 34.0992 48.1464 34.344 48.06 34.6104C47.9664 34.8624 47.88 35.1216 47.7648 35.3736C47.5416 35.8848 47.2824 36.4032 46.9728 36.8784C46.872 37.0584 46.7496 37.2456 46.6344 37.4256C46.5048 37.6128 46.368 37.7928 46.2528 37.9656C46.0872 38.1888 45.9144 38.4192 45.7344 38.628C45.576 38.844 45.4176 39.06 45.2376 39.2544C44.9928 39.5496 44.7552 39.8232 44.5032 40.0896C44.3592 40.2624 44.2008 40.4424 44.0352 40.6008C43.8768 40.7808 43.7112 40.9392 43.5672 41.0832C43.3152 41.3352 43.1136 41.5224 42.9408 41.688L42.5304 42.0552C42.4728 42.1128 42.3936 42.1416 42.3144 42.1416H39.1608V46.1808H43.128C44.0136 46.1808 44.856 45.8712 45.54 45.288C45.7704 45.0864 46.7856 44.208 47.988 42.8832C48.0312 42.8328 48.0816 42.804 48.1392 42.7896L59.0904 39.6216C59.2992 39.564 59.5008 39.7152 59.5008 39.9312V42.2496Z" fill="white"/>
</svg>
